<?xml version="1.0" encoding="UTF-8" standalone="no"?>
<!DOCTYPE svg PUBLIC "-//W3C//DTD SVG 1.1//EN" "http://www.w3.org/Graphics/SVG/1.1/DTD/svg11.dtd">
<svg width="100%" height="100%" viewBox="0 0 40 40" style="fill-rule:evenodd;clip-rule:evenodd;stroke-linejoin:round;stroke-miterlimit:2;">
    <path d="M16.818,39.703L16.7,39.8C7.2,38.1 0,29.9 0,20C0,9 9,0 20,0C31,0 40,9 40,20C40,29.9 32.8,38.1 23.3,39.8L23.217,39.732C23.278,39.722 23.339,39.711 23.4,39.7L23.4,25.6L27.8,25.6L28.7,20L23.4,20L23.4,16.1C23.4,14.5 24,13.3 26.4,13.3L29,13.3L29,8.2C27.6,8 26,7.8 24.6,7.8C20,7.8 16.8,10.6 16.8,15.6L16.8,20L11.8,20L11.8,25.6L16.8,25.6L16.8,39.7L16.818,39.703Z" style="fill:rgb(191,31,46);fill-rule:nonzero;"/>
</svg>
