<?xml version="1.0" encoding="UTF-8" standalone="no"?>
<!DOCTYPE svg PUBLIC "-//W3C//DTD SVG 1.1//EN" "http://www.w3.org/Graphics/SVG/1.1/DTD/svg11.dtd">
<svg width="100%" height="100%" viewBox="0 0 354 57" version="1.1" xmlns="http://www.w3.org/2000/svg" xmlns:xlink="http://www.w3.org/1999/xlink" style="fill-rule:evenodd;clip-rule:evenodd;stroke-linecap:round;stroke-linejoin:round;stroke-miterlimit:1.5;">
    <g transform="matrix(1,0,0,1,0.00158858,0.00137919)">
        <g transform="matrix(0.928877,0,0,0.928877,-4.14438,-8.0984)">
            <path d="M31.314,27.974C31.864,17.887 37.503,11.766 47.773,9.257C47.428,20.134 42.579,26.507 33.009,28.16L31.314,27.974Z" style="fill:rgb(10,104,57);stroke:rgb(10,104,57);stroke-width:1.08px;"/>
        </g>
        <g transform="matrix(0.865757,0,0,0.865757,-2.44525,-5.92508)">
            <g transform="matrix(0.929777,0,0,1.01995,126.067,-1.88694)">
                <path d="M31.314,27.974C31.864,17.887 37.503,11.766 47.773,9.257C47.428,20.134 42.579,26.507 33.009,28.16L31.314,27.974Z" style="fill:rgb(10,104,57);stroke:rgb(10,104,57);stroke-width:1.18px;"/>
            </g>
            <g transform="matrix(0.929777,0,-1.54839e-16,1.01995,126.067,-2.24027)">
                <path d="M31.804,28.854C31.804,28.854 34.257,25.9 37.017,22.534C40.633,18.123 44.776,13.01 44.776,13.01L44.895,12.87L44.588,12.653L44.469,12.793C44.469,12.793 40.055,17.713 36.257,21.995C33.358,25.263 30.823,28.158 30.823,28.158L30.442,28.605L31.423,29.301L31.804,28.854Z" style="fill:white;"/>
            </g>
            <g transform="matrix(-0.795003,0.0401754,0.00516126,0.866234,177.217,1.11543)">
                <path d="M31.314,27.974C31.864,17.887 37.503,11.766 47.773,9.257C47.428,20.134 42.579,26.507 33.009,28.16L31.314,27.974Z" style="fill:rgb(10,104,57);stroke:rgb(10,104,57);stroke-width:1.36px;"/>
            </g>
            <g transform="matrix(-0.760905,0.0947219,0.0764673,0.865323,174.467,-0.633814)">
                <path d="M31.581,27.852C31.581,27.852 33.931,24.845 36.627,21.451C40.158,17.005 44.273,11.895 44.273,11.895L44.406,11.719L44.796,11.942L44.662,12.118C44.662,12.118 40.892,17.424 37.591,22.003C35.072,25.498 32.825,28.563 32.825,28.563L32.4,29.125L31.156,28.414L31.581,27.852Z" style="fill:white;"/>
            </g>
            <g transform="matrix(1.07291,0,0,1.07291,129.387,-2.88198)">
                <path d="M33.98,29.561C24.932,31.755 23.619,50.867 34.53,52.73C37.2,53.186 32.83,59.126 32.83,59.126L21.511,59.611L16.238,51.194L14.377,32.213L29.715,27.029L33.98,29.561Z" style="fill:white;stroke:rgb(191,31,47);stroke-width:1.08px;"/>
            </g>
            <g transform="matrix(1.03799,0.271505,-0.271505,1.03799,129.16,-8.41712)">
                <path d="M24.731,28.16C27.069,24.464 27.501,19.788 24.237,15.928C26.107,15.25 26.2,14.609 26.918,13.766C30.389,16.747 31.699,21.349 31.217,27.295C28.809,32.96 27.468,33.696 24.731,28.16Z" style="fill:rgb(97,59,20);stroke:rgb(97,59,20);stroke-width:1.08px;"/>
            </g>
            <g transform="matrix(1.07291,0,0,1.07291,129.387,-2.88198)">
                <path d="M37.968,30.149C36.022,27.703 32.685,21.875 22.591,25.228C9.739,21.478 4.769,32.249 5,47.067C5.196,59.622 7.016,67.954 14.732,67.954C19.99,67.954 22.535,65.243 22.535,65.243C32.258,71.778 37.092,64.227 38.03,50.513C26.806,59.122 18.228,56.353 18.228,43.965C18.228,35.527 24.642,28.185 37.968,30.149Z" style="fill:rgb(191,31,47);stroke:rgb(191,31,47);stroke-width:1.08px;"/>
            </g>
        </g>
        <g transform="matrix(0.928877,0,-1.54689e-16,0.928877,-4.14438,-8.42018)">
            <path d="M31.723,28.855C31.723,28.855 34.183,25.902 36.955,22.535C40.585,18.124 44.751,13.011 44.751,13.011L44.86,12.883L44.603,12.664L44.494,12.792C44.494,12.792 40.102,17.712 36.32,21.993C33.432,25.261 30.904,28.157 30.904,28.157L30.555,28.566L31.374,29.265L31.723,28.855Z" style="fill:white;"/>
        </g>
        <g transform="matrix(-0.865955,0.19714,0.164817,0.985354,41.4288,-16.8487)">
            <path d="M31.314,27.974C31.864,17.887 37.503,11.766 47.773,9.257C47.428,20.134 42.579,26.507 33.009,28.16L31.314,27.974Z" style="fill:rgb(10,104,57);stroke:rgb(10,104,57);stroke-width:1.03px;"/>
        </g>
        <g transform="matrix(-0.818476,0.252756,0.242981,0.970737,38.0874,-18.317)">
            <path d="M31.718,27.952C31.718,27.952 34.057,24.937 36.733,21.529C40.238,17.064 44.315,11.926 44.315,11.926L44.417,11.792L44.722,11.952L44.62,12.087C44.62,12.087 40.811,17.366 37.485,21.925C34.947,25.406 32.689,28.463 32.689,28.463L32.363,28.893L31.392,28.382L31.718,27.952Z" style="fill:white;"/>
        </g>
        <g transform="matrix(0.928877,0,0,0.928877,-4.14438,-8.42018)">
            <path d="M38.139,33.518C29.344,37.809 33.188,58.588 48.835,55.891C49.031,55.857 40.915,59.868 38.93,61.517C37.791,62.464 23.063,54.315 23.063,54.315L21.203,35.333L36.541,30.149L38.139,33.518Z" style="fill:white;stroke:rgb(191,31,47);stroke-width:1.08px;"/>
        </g>
        <g transform="matrix(0.928877,0,0,0.928877,-4.14438,-8.42018)">
            <path d="M24.731,28.16C27.069,24.464 27.501,19.788 24.237,15.928C26.107,15.25 26.2,14.609 26.918,13.766C30.389,16.747 31.699,21.349 31.217,27.295C28.809,32.96 27.468,33.696 24.731,28.16Z" style="fill:rgb(97,59,20);stroke:rgb(97,59,20);stroke-width:1.08px;"/>
        </g>
        <g transform="matrix(0.928877,0,0,0.928877,-4.14438,-8.42018)">
            <path d="M48.31,37.366C48.213,27.64 38.695,23.608 27.618,28.753C14.766,25.002 5,35.369 5,47.067C5,59.624 16.608,69.456 24.324,69.456C29.582,69.456 32.531,65.995 32.531,65.995C42.254,72.529 47.897,69.659 48.835,55.944C35.127,62.069 24.237,58.26 24.237,45.871C24.237,37.434 35.966,28.526 48.31,37.366Z" style="fill:rgb(191,31,47);stroke:rgb(191,31,47);stroke-width:1.08px;"/>
        </g>
        <g transform="matrix(0.743606,0,0,0.865757,9.71564,-5.92508)">
            <path d="M63.204,28.9C63.204,25.494 59.985,22.729 56.02,22.729C52.054,22.729 48.835,25.494 48.835,28.9C48.737,40.31 49.587,51.745 48.835,63.285C48.835,66.691 52.054,69.456 56.02,69.456C59.985,69.456 63.204,66.691 63.204,63.285C62.987,51.917 62.264,40.766 63.204,28.9Z" style="fill:rgb(10,104,57);"/>
        </g>
        <g transform="matrix(0.743606,0,0,0.865757,293.107,-5.92508)">
            <path d="M63.204,28.9C63.204,25.494 59.985,22.729 56.02,22.729C52.054,22.729 48.835,25.494 48.835,28.9C48.737,40.31 49.587,51.745 48.835,63.285C48.835,66.691 52.054,69.456 56.02,69.456C59.985,69.456 63.204,66.691 63.204,63.285C62.987,51.917 62.264,40.766 63.204,28.9Z" style="fill:rgb(10,104,57);"/>
        </g>
        <g transform="matrix(0.68418,0,0,0.865757,26.5172,-5.92508)">
            <path d="M64.339,28.407C64.339,25.273 61.12,22.729 57.154,22.729C53.189,22.729 49.97,25.273 49.97,28.407C49.97,28.407 47.693,54.933 48.835,63.779C49.226,66.803 52.054,69.456 56.02,69.456C59.985,69.456 63.204,66.912 63.204,63.779C63.271,51.988 62.575,40.197 64.339,28.407Z" style="fill:rgb(10,104,57);"/>
        </g>
        <g transform="matrix(0.68418,0,0,0.865757,309.909,-5.92508)">
            <path d="M64.339,28.407C64.339,25.273 61.12,22.729 57.154,22.729C53.189,22.729 49.97,25.273 49.97,28.407C49.97,28.407 47.693,54.933 48.835,63.779C49.226,66.803 52.054,69.456 56.02,69.456C59.985,69.456 63.204,66.912 63.204,63.779C63.271,51.988 62.575,40.197 64.339,28.407Z" style="fill:rgb(10,104,57);"/>
        </g>
        <g transform="matrix(0.68418,0,0,0.865757,66.3036,-5.92508)">
            <path d="M63.204,28.407C63.204,25.273 59.985,22.729 56.02,22.729C52.054,22.729 48.835,25.273 48.835,28.407C47.1,40.197 47.609,51.988 48.835,63.779C48.835,66.912 52.054,69.456 56.02,69.456C59.985,69.456 63.204,66.912 63.204,63.779C62.072,51.988 61.748,40.197 63.204,28.407Z" style="fill:rgb(10,104,57);"/>
        </g>
        <g transform="matrix(4.1894e-17,-0.68418,0.4617,2.8271e-17,36.6377,69.8882)">
            <path d="M63.204,33.376C63.204,27.5 59.985,22.729 56.02,22.729C52.054,22.729 48.835,27.5 48.835,33.376L48.835,58.81C48.835,64.686 52.054,69.456 56.02,69.456C59.985,69.456 63.204,64.686 63.204,58.81L63.204,33.376Z" style="fill:rgb(10,104,57);"/>
        </g>
        <g transform="matrix(4.1894e-17,-0.68418,0.4617,2.8271e-17,320.029,69.8882)">
            <path d="M63.204,33.376C63.204,27.5 59.985,22.729 56.02,22.729C52.054,22.729 48.835,27.5 48.835,33.376L48.835,58.81C48.835,64.686 52.054,69.456 56.02,69.456C59.985,69.456 63.204,64.686 63.204,58.81L63.204,33.376Z" style="fill:rgb(10,104,57);"/>
        </g>
        <g transform="matrix(0.865757,0,0,0.865757,4.58975,-5.92508)">
            <path d="M104.081,44.593C104.081,31.664 98.925,22.017 92.574,22.017C86.223,22.017 80.191,27.155 80.191,44.348C80.191,63.818 86.223,69.456 92.574,69.456C98.925,69.456 104.081,64.122 104.081,44.593ZM93.834,36.208C96.586,36.208 98.821,39.903 98.821,44.455C98.821,49.006 96.586,52.701 93.834,52.701C91.082,52.701 88.848,49.006 88.848,44.455C88.848,39.903 91.082,36.208 93.834,36.208Z" style="fill:rgb(10,104,57);"/>
        </g>
        <g transform="matrix(0.865757,0,0,0.865757,-1.92106,-8.10921)">
            <circle cx="126.659" cy="15.703" r="5.626" style="fill:rgb(10,104,57);"/>
        </g>
        <g transform="matrix(0.865757,0,0,0.865757,1.54087,-4.21999)">
            <path d="M185.472,33.631C185.51,29.861 197.497,35.866 198.028,26.834C198.331,21.672 191.259,21.115 184.21,21.128C178.808,21.137 172.973,23.794 171.039,30.393C169.956,34.087 169.83,42.626 169.977,48.031C170.645,72.585 196.609,72.956 198.601,59.658C200.074,49.826 183.844,58.219 183.761,51.613C183.686,45.54 195.546,50.166 195.872,41.5C196.183,33.222 185.414,39.338 185.472,33.631Z" style="fill:rgb(10,104,57);stroke:rgb(10,104,57);stroke-width:1.16px;stroke-linecap:square;"/>
        </g>
        <g transform="matrix(0.865757,0,0,0.865757,79.9229,-4.21999)">
            <path d="M183.236,34.27C183.092,27.671 197.497,35.866 198.028,26.834C198.331,21.672 191.259,21.115 184.21,21.128C178.808,21.137 172.973,23.794 171.039,30.393C169.956,34.087 170.576,42.625 170.707,48.031C170.869,54.709 171.31,61.232 174.946,63.682C184.04,69.81 197.079,67.943 198.601,59.658C200.398,49.88 183.844,58.219 183.761,51.613C183.686,45.54 194.186,49.027 194.457,40.359C194.677,33.313 183.361,39.976 183.236,34.27Z" style="fill:rgb(10,104,57);stroke:rgb(10,104,57);stroke-width:1.16px;stroke-linecap:square;"/>
        </g>
        <g transform="matrix(0.865757,0,0,0.865757,-0.44525,-5.92508)">
            <path d="M223.759,21.106C232.955,21.106 232.136,32.909 232.136,46.222C232.136,59.534 237,70.392 224.706,70.026C214.976,69.737 214.341,56.908 214.341,43.596C214.341,30.284 214.564,21.106 223.759,21.106Z" style="fill:rgb(10,104,57);"/>
        </g>
        <g transform="matrix(0.865757,0,0,0.865757,-0.44525,-5.92508)">
            <path d="M247.234,21.106C260.1,19.875 258.545,32.909 258.545,46.222C258.545,59.534 256.836,69.573 249.411,69.346C239.524,69.044 242.661,58.771 240.939,45.57C239.141,31.785 237.064,22.078 247.234,21.106Z" style="fill:rgb(10,104,57);"/>
        </g>
        <g transform="matrix(0.865757,0,0,0.69064,-0.44525,2.83077)">
            <path d="M249.026,39.12C249.026,37.118 247.73,35.493 246.133,35.493L228.593,35.493C226.996,35.493 225.7,37.118 225.7,39.12L225.7,46.373C225.7,48.375 226.996,50 228.593,50L246.133,50C247.73,50 249.026,48.375 249.026,46.373L249.026,39.12Z" style="fill:rgb(10,104,57);"/>
        </g>
        <g transform="matrix(0.865757,0,0,0.865757,-0.44525,-5.92508)">
            <path d="M311.001,23.097C319.618,23.097 322.667,35.504 323.781,45.57C324.645,53.378 327.766,69.612 320.454,69.269C311.055,68.827 318.412,53.707 310.832,55.699C305.04,57.222 309.673,69.071 300.856,69.269C292.241,69.462 294.597,56.677 295.388,44.862C296.19,32.876 302.384,23.097 311.001,23.097ZM311.001,35.072C313.364,35.072 315.283,37.424 315.283,40.321C315.283,43.218 313.364,45.57 311.001,45.57C308.638,45.57 306.719,43.218 306.719,40.321C306.719,37.424 308.638,35.072 311.001,35.072Z" style="fill:rgb(10,104,57);"/>
        </g>
        <g transform="matrix(1.85978,0,0,0.865757,-331.438,-5.92505)">
            <path d="M333.824,23.097C337.265,23.077 336.84,33.487 336.339,46.183C335.732,61.571 338.397,58.554 341.083,58.727C343.098,58.857 342.567,68.519 340.85,69.269C338.463,70.31 334.622,70.047 333.824,69.269C331.728,67.225 330.585,58.924 330.585,46.183C330.585,33.441 329.688,23.122 333.824,23.097Z" style="fill:rgb(10,104,57);"/>
        </g>
        <g transform="matrix(1.12485,0,0,0.865757,-96.0744,-5.92508)">
            <path d="M349.967,28.923C349.993,24.086 355.166,22.893 363.928,23.097C372.266,23.291 375.479,24.149 375.652,28.709C375.992,37.651 369.504,33.032 369.199,37.175C368.21,50.626 371.293,67.902 364.199,67.958C357.488,68.012 358.794,48.84 358.925,36.462C358.98,31.246 349.923,37.34 349.967,28.923Z" style="fill:rgb(10,104,57);"/>
        </g>
    </g>
</svg>
